<svg 
    fill="none" 
    height="20" 
    viewBox="0 0 147 20" 
    width="147" 
    xmlns="http://www.w3.org/2000/svg" 
    xmlns:xlink="http://www.w3.org/1999/xlink">
<linearGradient id="a" gradientUnits="userSpaceOnUse" x1="-1" x2="150" y1="9" y2="9">
<stop offset="0" stop-color="#e435be"/>
<stop offset="1" stop-color="#156ed6"/>
</linearGradient>
<path 
    d="m17.616 19v-18.2h-4.316v11.232l-8.398-11.232h-4.082v18.2h4.342v-11.206l8.372 
    11.206zm20.4915-14.56v-3.64h-14.248v18.2h14.534v-3.64h-9.906v-3.666h8.684v-3.64h-8.684v-3.614zm5.8715-3.64v18.2h4.628v-5.122h3.302c4.654
    0 7.332-2.47 7.332-6.734 0-4.056-2.678-6.344-7.332-6.344zm4.628 3.64h3.068c2.028 0 3.198.962 3.198 2.86 0 1.924-1.17 2.938-3.198 
    2.938h-3.068zm29.5539.078v-3.743999h-15.548v3.743999h5.434v14.482h4.628v-14.482zm20.9645-3.718h-4.602v10.556c0 2.47-1.482 3.978-3.666 
    3.978-2.21 0-3.796-1.508-3.796-3.978v-10.556h-4.628v10.556c0 4.81 3.276 7.852 8.398 7.852 5.096 0 8.294-3.042 8.294-7.852zm22.7196 
    18.2v-18.2h-4.316v11.232l-8.398-11.232h-4.082v18.2h4.342v-11.206l8.372 11.206zm14.875-18.355999c-5.616 0-9.828 3.925999-9.828 9.229999 0 
    5.33 4.212 9.334 9.828 9.334 5.642 0 9.854-4.03 9.854-9.334 0-5.278-4.212-9.229999-9.854-9.229999zm.052 3.873999c2.808 0 5.044 2.314 5.044 
    5.382s-2.236 5.434-5.044 5.434c-2.782 0-5.148-2.366-5.148-5.434s2.34-5.382 5.148-5.382z" fill="url(#a)"/></svg>